<svg xmlns="http://www.w3.org/2000/svg" width="749.703" height="710.721" viewBox="0 0 749.703 710.721">
  <g id="antDev" transform="translate(-282.109 -188.444)">
    <circle id="Ellipse_94" data-name="Ellipse 94" cx="15.786" cy="15.786" r="15.786" transform="translate(478.597 255.987)" fill="#707070" stroke="#707070" stroke-width="21"/>
    <circle id="Ellipse_95" data-name="Ellipse 95" cx="15.786" cy="15.786" r="15.786" transform="translate(809.359 257.49)" fill="#707070" stroke="#707070" stroke-width="21"/>
    <circle id="Ellipse_96" data-name="Ellipse 96" cx="15.786" cy="15.786" r="15.786" transform="translate(861.981 670.943)" fill="#707070" stroke="#707070" stroke-width="21"/>
    <circle id="Ellipse_97" data-name="Ellipse 97" cx="15.786" cy="15.786" r="15.786" transform="translate(425.976 670.943)" fill="#707070" stroke="#707070" stroke-width="21"/>
    <path id="Path_4" data-name="Path 4" d="M84.532,177.57c51.607,2.7,94.4-44.886,92.992-91.168S135.679.507,88.762.1C45.671-2.256,0,37.38,0,86.4s39.945,120.312,152.367,88.732,242.681,28.809,296.088,130.259" transform="matrix(0.891, 0.454, -0.454, 0.891, 616.702, 205.26)" fill="none" stroke="#707070" stroke-width="25"/>
    <path id="Path_5" data-name="Path 5" d="M84.532,127.823c51.607-2.7,94.4,44.886,92.992,91.168s-41.845,85.9-88.762,86.3C45.671,307.65,0,268.013,0,218.991S39.945,98.68,152.367,130.259,395.049,101.45,448.455,0" transform="matrix(-0.891, 0.454, -0.454, -0.891, 835.863, 477.368)" fill="none" stroke="#707070" stroke-width="25"/>
    <path id="Path_6" data-name="Path 6" d="M2673.512,2115s-28.222,159.458,157.851,219.574,143.7,279.811,114.667,312.03c-29.027,59.7-126.118,154.583-219.154,0-77.292-148.858,8.588-280.541,104.487-312.03s173.191-82.829,173.191-219.574" transform="translate(-2178.377 -1843.979)" fill="none" stroke="#707070" stroke-width="25"/>
  </g>
</svg>
